<mxfile host="app.diagrams.net" agent="Mozilla/5.0 (Windows NT 10.0; Win64; x64) AppleWebKit/537.36 (KHTML, like Gecko) Chrome/136.0.0.0 Safari/537.36" version="26.2.14">
  <diagram name="Page-1" id="GXqKMhPWEr0JX9j5Nwb1">
    <mxGraphModel dx="1426" dy="751" grid="1" gridSize="10" guides="1" tooltips="1" connect="1" arrows="1" fold="1" page="1" pageScale="1" pageWidth="850" pageHeight="1100" math="0" shadow="0">
      <root>
        <mxCell id="0" />
        <mxCell id="1" parent="0" />
        <mxCell id="V_tnaEBo6NMSAwrgcOmd-3" value="" style="shape=mxgraph.cisco.security.router_firewall;sketch=0;html=1;pointerEvents=1;dashed=0;fillColor=#036897;strokeColor=#ffffff;strokeWidth=2;verticalLabelPosition=bottom;verticalAlign=top;align=center;outlineConnect=0;" vertex="1" parent="1">
          <mxGeometry x="627.06" y="210" width="78" height="62" as="geometry" />
        </mxCell>
        <mxCell id="V_tnaEBo6NMSAwrgcOmd-11" value="HQ" style="swimlane;whiteSpace=wrap;html=1;" vertex="1" parent="1">
          <mxGeometry x="40" y="141" width="300.00000000000006" height="339" as="geometry" />
        </mxCell>
        <mxCell id="V_tnaEBo6NMSAwrgcOmd-9" value="" style="shape=mxgraph.cisco.switches.workgroup_switch;sketch=0;html=1;pointerEvents=1;dashed=0;fillColor=#036897;strokeColor=#ffffff;strokeWidth=2;verticalLabelPosition=bottom;verticalAlign=top;align=center;outlineConnect=0;" vertex="1" parent="V_tnaEBo6NMSAwrgcOmd-11">
          <mxGeometry x="199.00000000000006" y="75" width="101" height="50" as="geometry" />
        </mxCell>
        <mxCell id="V_tnaEBo6NMSAwrgcOmd-1" value="" style="shape=mxgraph.cisco.security.router_firewall;sketch=0;html=1;pointerEvents=1;dashed=0;fillColor=#036897;strokeColor=#ffffff;strokeWidth=2;verticalLabelPosition=bottom;verticalAlign=top;align=center;outlineConnect=0;" vertex="1" parent="V_tnaEBo6NMSAwrgcOmd-11">
          <mxGeometry x="50.00000000000006" y="75" width="78" height="62" as="geometry" />
        </mxCell>
        <mxCell id="V_tnaEBo6NMSAwrgcOmd-13" value="" style="shape=mxgraph.cisco.switches.layer_3_switch;sketch=0;html=1;pointerEvents=1;dashed=0;fillColor=#036897;strokeColor=#ffffff;strokeWidth=2;verticalLabelPosition=bottom;verticalAlign=top;align=center;outlineConnect=0;" vertex="1" parent="V_tnaEBo6NMSAwrgcOmd-11">
          <mxGeometry x="48" y="199" width="80" height="80" as="geometry" />
        </mxCell>
      </root>
    </mxGraphModel>
  </diagram>
</mxfile>
